<svg width="57" height="58" viewBox="0 0 57 58" fill="none" xmlns="http://www.w3.org/2000/svg">
<path d="M34.644 38.802C34.3895 40.3019 34.0823 41.7079 34.2214 43.1455C34.2628 43.5752 34.092 44.2926 34.7423 44.2534C35.3927 44.2142 35.0458 43.5408 35.0393 43.1509C35.0271 42.0655 35.109 40.9811 35.2842 39.9099C35.3793 39.2982 35.6752 39.0834 36.2589 39.0469C38.1192 38.9314 39.9532 39.1618 41.7877 39.4083C42.3742 39.4867 42.9568 39.5904 43.5422 39.6768C44.0352 39.7499 44.3574 39.5775 44.2361 39.0361C43.2221 34.5148 43.5073 29.9011 43.2361 25.3272C43.1325 23.577 42.9268 21.8364 42.3103 20.1749C41.9654 19.2493 41.4742 18.3852 40.8554 17.6153C40.748 17.4816 40.5971 17.3468 40.5697 17.1932C40.3436 15.9344 39.4521 15.2835 38.3679 14.9146C34.7472 13.6815 31.0953 13.0119 27.4284 14.7583C23.6498 16.5579 21.0146 19.293 20.2429 23.5593C20.0673 24.5291 19.8132 25.4851 19.5845 26.4458C19.0077 28.8808 18.2526 31.2469 16.9197 33.394C16.148 34.6294 15.2391 35.7736 14.2103 36.8047C13.5433 37.4782 13.5815 37.7945 14.3655 38.3165C16.5609 39.7794 18.9921 40.5721 21.5919 40.9614C23.3389 41.2213 25.0767 41.2944 26.8264 41.1C27.2904 41.0489 27.4708 41.2143 27.423 41.6735C27.357 42.3389 27.2555 42.9952 27.0439 43.631C26.9612 43.8802 26.9155 44.1471 27.2136 44.2658C27.5476 44.3984 27.7173 44.1552 27.8205 43.8899C28.118 43.1214 28.2173 42.3099 28.27 41.4974C28.2984 41.05 28.5036 40.8497 28.9144 40.7278C29.953 40.4179 30.1899 40.0898 30.236 38.9706C30.3606 35.9788 29.6593 33.0901 29.1265 30.1809C28.6969 27.8276 28.1894 25.4835 28.2426 23.0695C28.2479 22.823 28.2463 22.5754 28.2689 22.3305C28.541 19.3346 30.1823 17.9189 33.193 18.0836C34.3557 18.1481 35.4915 18.3838 36.615 18.6744C37.5365 18.9144 38.464 18.9907 39.3984 18.7882C39.8345 18.6942 40.1127 18.8167 40.2609 19.2479C41.4891 22.8165 42.4155 26.4346 42.046 30.2609C41.7018 33.8204 39.849 36.2398 36.5355 37.57C35.1687 38.1189 33.882 37.9282 32.6216 37.265C32.469 37.185 32.3283 37.0835 32.178 36.9965C31.9632 36.874 31.7483 36.8536 31.5958 37.0899C31.4626 37.2972 31.5776 37.4739 31.7242 37.6146C32.1624 38.0329 32.6973 38.28 33.273 38.4422C33.694 38.5646 34.1231 38.6672 34.644 38.802Z" fill="#F2F2F2" fill-opacity="0.5"/>
<path d="M37.8775 29.497C37.6912 28.5642 37.4597 27.5057 37.2728 26.4391C37.0725 25.2985 36.9141 24.1508 36.7358 23.0059C36.6821 22.6691 36.6875 22.2175 36.2106 22.2744C35.7611 22.3281 35.884 22.7604 35.9238 23.0612C36.1773 24.9661 36.4248 26.8741 36.8835 28.7436C36.9363 28.9335 36.9775 29.1265 37.007 29.3214C37.087 29.9836 36.9055 30.1452 36.2696 29.9659C36.0344 29.8998 35.8142 29.7822 35.5844 29.6974C35.3841 29.6232 35.1897 29.6211 35.0667 29.8316C34.9491 30.0325 35.0226 30.2075 35.1644 30.3686C35.5044 30.7521 36.8555 31.0206 37.3238 30.8085C37.8485 30.5711 37.9038 30.1205 37.8775 29.497Z" fill="#F2F2F2" fill-opacity="0.5"/>
<path d="M32.5245 25.8486C32.5245 26.312 32.6384 26.6541 32.8795 26.9516C33.2162 27.3673 33.6314 27.6262 34.162 27.3931C34.7194 27.1471 34.6281 26.6412 34.5035 26.181C34.4068 25.8519 34.2795 25.5326 34.1233 25.2272C33.9466 24.862 33.7119 24.5291 33.2318 24.6112C32.7914 24.6859 32.6846 25.0586 32.5938 25.4222C32.5632 25.563 32.5401 25.7053 32.5245 25.8486Z" fill="#F2F2F2" fill-opacity="0.5"/>
<path d="M38.3018 25.86C38.3179 26.0034 38.326 26.1511 38.3528 26.295C38.4849 26.9985 39.001 27.4668 39.5262 27.3648C40.096 27.2541 40.3221 26.7139 40.117 25.9384C40.0868 25.7945 40.0428 25.6538 39.9854 25.5184C39.7738 25.0808 39.603 24.526 38.9624 24.671C38.3625 24.8058 38.3727 25.3724 38.3018 25.86Z" fill="#F2F2F2" fill-opacity="0.5"/>
<path d="M36.7287 34.3379C36.842 34.3379 36.8668 34.3379 36.8898 34.3379C37.6331 34.3105 38.451 33.8459 38.4473 33.4544C38.4435 33.0629 37.3538 32.6086 36.6799 32.73C36.5107 32.7597 36.3468 32.814 36.1933 32.8911C35.8507 33.0688 35.2406 33.0307 35.3045 33.5823C35.3668 34.1225 35.9264 34.2031 36.3786 34.3089C36.4941 34.3296 36.6114 34.3393 36.7287 34.3379Z" fill="#F2F2F2" fill-opacity="0.5"/>
<path d="M32.7595 22.0459C31.5925 22.156 30.665 22.6092 30.128 23.6833C29.9942 23.9518 29.8594 24.2821 30.2069 24.4588C30.5802 24.6484 30.7096 24.2816 30.8514 24.0388C31.3025 23.2736 31.9738 22.9062 32.8524 22.8869C33.1773 22.8799 33.6719 23.0077 33.6579 22.5206C33.6445 21.9949 33.1112 22.0926 32.7595 22.0459Z" fill="#F2F2F2" fill-opacity="0.5"/>
<path d="M37.8005 22.6475C37.8005 22.9294 37.9917 23.0202 38.2189 23.0852C38.9654 23.2973 39.6592 23.5862 40.1136 24.2758C40.2392 24.4664 40.4487 24.5916 40.6818 24.4138C40.8933 24.2527 40.8762 24.0411 40.7763 23.8161C40.482 23.1539 38.989 22.2324 38.2774 22.278C38.0326 22.2936 37.85 22.3838 37.8005 22.6475Z" fill="#F2F2F2" fill-opacity="0.5"/>
</svg>
