<svg width="30" height="30" viewBox="0 0 30 30" fill="none" xmlns="http://www.w3.org/2000/svg">
<path d="M8.98875 12.4625L6.96814 13.9452C6.89855 13.9962 6.85475 14.07 6.84752 14.156C6.76029 15.1941 6.20705 22.0925 6.85866 22.6532C7.56346 23.2598 22.5468 22.9777 23.0326 22.6532C23.481 22.3538 23.1017 15.3595 23.0406 14.284C23.0355 14.1933 22.9896 14.1151 22.9157 14.0624L20.9705 12.6774" stroke="#878787" stroke-width="0.6" stroke-linecap="round"/>
<path d="M9.14856 15.27C9.14856 15.27 8.85593 8.47662 9.1657 7.67268C9.47547 6.86874 20.9462 7.12329 20.9462 7.67268C20.9462 8.22208 20.9462 15.1728 20.9462 15.1728" stroke="#878787" stroke-width="0.6" stroke-linecap="round"/>
<path d="M16.0434 17.9613L22.8804 14.1885" stroke="#878787" stroke-width="0.6" stroke-linecap="round"/>
<path d="M6.90674 14.0736L13.7249 17.8706" stroke="#878787" stroke-width="0.6" stroke-linecap="round"/>
<path d="M6.95459 22.6292L14.7448 17.2734C14.7953 17.2387 14.8618 17.2382 14.9129 17.2722L22.9603 22.6292" stroke="#878787" stroke-width="0.6" stroke-linecap="round"/>
<path d="M11.8242 11.2606H18.5551" stroke="#878787" stroke-width="0.6" stroke-linecap="round"/>
<path d="M11.8242 9.92957H18.5551" stroke="#878787" stroke-width="0.6" stroke-linecap="round"/>
<path d="M8.64733 23.9052C6.58692 23.8012 6.54906 22.9181 6.38972 22.3206C6.38972 22.3206 6.52677 22.7592 9.83406 22.9717C13.2514 23.1913 19.7736 23.0262 22.5979 22.6496C23.2184 22.5981 23.5584 20.168 23.5389 21.0265C23.5193 21.8849 23.7293 23.7879 22.7568 23.9052C21.7843 24.0226 19.3358 24.2031 16.5247 24.2173C13.74 24.2314 10.1978 23.9835 8.64733 23.9052Z" fill="#878787"/>
<path d="M21.0884 14.9608V12.842L22.7279 14.079L21.0884 14.9608Z" fill="#878787"/>
<path d="M8.91162 14.9608V12.842L7.27212 14.079L8.91162 14.9608Z" fill="#878787"/>
</svg>
