<svg width="32" height="32" viewBox="0 0 32 32" fill="none" xmlns="http://www.w3.org/2000/svg">
<path d="M19.0482 14.4298C19.8621 14.3883 20.5667 14.2642 21.2793 14.3113C21.9063 14.3527 22.4325 14.5673 22.7389 15.1501C22.9792 15.607 22.9027 16.0529 22.6272 16.4656C23.4568 17.4372 23.4473 17.8772 22.5952 18.6692C22.9211 19.6742 22.6926 20.1445 21.6802 20.5566C21.7895 21.3207 21.5949 21.6159 20.8491 21.8099C20.751 21.8354 20.6491 21.8674 20.5501 21.8639C18.2965 21.7818 16.0168 21.8105 13.9759 20.6265C12.7054 19.889 11.3291 19.6191 9.88701 19.593C9.59605 19.5883 9.31694 19.615 9.2482 19.2144C8.94182 17.4292 8.61827 15.6458 8.82508 13.8218C8.85477 13.5797 8.91142 13.3417 8.99397 13.1122C9.11249 12.7776 9.28494 12.4556 9.68227 12.4159C10.0464 12.3797 10.2787 12.6286 10.4716 12.9042C10.8191 13.4071 11.0926 13.9573 11.2838 14.5379C11.3919 14.8585 11.5723 15.0025 11.8971 15.0055C12.4867 15.0111 13.0769 15.0431 13.6657 15.025C14.218 15.0079 14.6731 14.8304 14.9398 14.2621C15.1709 13.7738 15.6278 13.4639 16.1018 13.2156C16.8452 12.8265 17.2595 12.2224 17.3759 11.396C17.4035 11.1947 17.4646 10.9994 17.5566 10.8182C17.8035 10.3465 18.1842 10.0621 18.7418 10.151C19.2612 10.2336 19.4799 10.6236 19.5673 11.0899C19.7451 12.033 19.6289 12.953 19.2915 13.847C19.2298 14.015 19.1534 14.18 19.0482 14.4298ZM9.30834 15.1578C9.2636 16.3599 9.44642 17.4591 9.60464 18.5625C9.6639 18.9741 9.81205 19.14 10.2592 19.1456C11.5756 19.1619 12.8589 19.4179 13.9955 20.1021C15.9937 21.3053 18.2162 21.2964 20.4251 21.3877C20.7466 21.401 21.0698 21.3359 21.2695 20.9993C20.9812 20.4979 20.4695 20.5522 20.034 20.4461C19.8426 20.3999 19.5599 20.4164 19.6192 20.1299C19.6766 19.8594 19.9315 19.9714 20.1312 19.9862C20.5963 20.0212 21.0642 20.0618 21.5288 20.0455C21.9386 20.0304 22.2283 19.7821 22.2565 19.3619C22.2894 18.8698 21.8692 18.9273 21.564 18.8855C21.183 18.8333 20.7937 18.8244 20.4162 18.7613C20.2346 18.7317 19.9421 18.7107 19.9981 18.4292C20.0574 18.1302 20.3033 18.2665 20.4956 18.3053C20.9774 18.4019 21.4627 18.4404 21.9475 18.3409C22.3996 18.2479 22.7922 18.0564 22.7362 17.5136C22.684 17.0099 22.2829 16.8822 21.8473 16.868C21.4212 16.8541 20.9937 16.8722 20.5673 16.8585C20.362 16.852 20.0491 16.9436 20.0378 16.6159C20.0254 16.2508 20.351 16.3945 20.5439 16.3853C20.8885 16.369 21.2363 16.4064 21.5809 16.3791C21.9555 16.3495 22.3359 16.2573 22.3854 15.7936C22.4325 15.3513 22.1735 15.076 21.7883 14.9003C21.479 14.7593 21.1507 14.791 20.8278 14.7904C19.9092 14.7886 19.0079 14.9456 18.1018 15.0603C17.924 15.0828 17.6983 15.1308 17.6672 14.8739C17.6414 14.6594 17.8547 14.6437 18.0082 14.6028C18.1981 14.5522 18.4058 14.5696 18.5276 14.3483C19.0974 13.3136 19.3294 12.2256 19.0657 11.0594C19.015 10.8357 18.8935 10.6428 18.6212 10.6247C18.3747 10.6084 18.1919 10.7136 18.0515 10.9113C17.9175 11.0988 17.8675 11.3122 17.8304 11.5359C17.6781 12.4544 17.2203 13.1548 16.3818 13.5972C15.8503 13.8775 15.4183 14.2624 15.1522 14.8227C14.9818 15.1818 14.6399 15.3264 14.2707 15.4096C13.4657 15.5924 12.6538 15.5527 11.8443 15.4689C11.0203 15.3806 10.1987 15.2674 9.30834 15.1578Z" fill="#0037EB"/>
<path d="M20.5661 21.8793H20.5501C20.3616 21.8725 20.1732 21.8666 19.9844 21.8603C17.9483 21.7948 15.8425 21.7273 13.9696 20.6402C12.8212 19.9738 11.4855 19.6363 9.88637 19.6088H9.82711C9.556 19.6061 9.30029 19.6037 9.23452 19.2185L9.20489 19.0488C8.91274 17.3483 8.61052 15.5901 8.81081 13.8218C8.83981 13.5785 8.89596 13.3392 8.97822 13.1083C9.09259 12.7824 9.26563 12.4437 9.67896 12.4025C10.0544 12.3649 10.2953 12.6313 10.4813 12.8968C10.8293 13.401 11.1033 13.9523 11.2953 14.5341C11.4028 14.852 11.5821 14.9889 11.8953 14.9919C12.0994 14.994 12.3068 14.999 12.5074 15.004C12.8864 15.0135 13.2778 15.0233 13.663 15.0114C14.2985 14.9919 14.6878 14.7593 14.9255 14.2568C15.1717 13.7368 15.6793 13.4206 16.0941 13.2037C16.8301 12.8191 17.2449 12.2277 17.3634 11.3948C17.3909 11.1918 17.4525 10.9948 17.5456 10.8123C17.8233 10.282 18.2271 10.055 18.7465 10.1377C19.2034 10.2103 19.4775 10.5214 19.5838 11.0882C19.753 11.9889 19.66 12.919 19.3074 13.8532C19.2653 13.964 19.2185 14.0707 19.1616 14.2055C19.1344 14.2689 19.1047 14.3377 19.0727 14.415C19.3492 14.4002 19.6135 14.3765 19.8692 14.3531C20.3572 14.3089 20.8173 14.2671 21.2825 14.2977C22.0078 14.3457 22.4754 14.6147 22.7539 15.1442C22.9791 15.5726 22.9433 16.0171 22.6476 16.4654C23.0861 16.9809 23.263 17.3205 23.2582 17.636C23.2535 17.9516 23.0668 18.2526 22.6141 18.6731C22.9359 19.6743 22.703 20.1546 21.6982 20.5655C21.8061 21.3329 21.6076 21.6277 20.855 21.8239L20.8164 21.834C20.7353 21.8599 20.6512 21.8752 20.5661 21.8793ZM9.75126 12.4274C9.7282 12.4275 9.70516 12.4287 9.68222 12.431C9.28518 12.4704 9.11748 12.8002 9.00607 13.1175C8.92391 13.346 8.86746 13.5829 8.83778 13.8239C8.63778 15.588 8.9397 17.3442 9.23155 19.0426L9.26118 19.2123C9.32311 19.5738 9.556 19.5759 9.82592 19.5786H9.88518C11.4893 19.6061 12.8295 19.9448 13.9824 20.6135C15.849 21.6971 17.9527 21.7646 19.9847 21.8301C20.1732 21.836 20.3616 21.8424 20.5501 21.8491C20.6369 21.847 20.723 21.8326 20.8058 21.8061L20.8446 21.7957C21.5818 21.6037 21.7735 21.3148 21.665 20.5584L21.6636 20.5471L21.6739 20.543C22.1957 20.3306 22.489 20.1104 22.6256 19.8286C22.7622 19.5468 22.7483 19.191 22.5809 18.6731L22.5779 18.6642L22.5847 18.658C23.4336 17.8692 23.4396 17.4408 22.6144 16.4746L22.6073 16.4663L22.6135 16.4571C22.9098 16.015 22.9456 15.5774 22.724 15.1563C22.4508 14.6363 21.991 14.3723 21.2766 14.3252C20.8144 14.2956 20.3545 14.3362 19.8674 14.3803C19.6046 14.4043 19.3323 14.4289 19.047 14.4434H19.0241L19.033 14.4224C19.0692 14.3365 19.1018 14.2606 19.1314 14.1916C19.1907 14.0568 19.2351 13.9504 19.2766 13.8402C19.6274 12.9113 19.721 11.9863 19.5518 11.0908C19.4478 10.5374 19.1818 10.234 18.7382 10.1634C18.2327 10.0828 17.839 10.3048 17.5679 10.823C17.4761 11.0026 17.4154 11.1965 17.3883 11.3963C17.2698 12.239 16.8496 12.8375 16.1062 13.2266C15.6956 13.4417 15.1927 13.7543 14.9507 14.2663C14.711 14.7729 14.3018 15.018 13.6627 15.0366C13.2775 15.0485 12.8849 15.0387 12.5053 15.0295C12.305 15.0245 12.0976 15.0191 11.8938 15.0174C11.5664 15.0144 11.3788 14.8716 11.2668 14.5397C11.0756 13.9607 10.8028 13.412 10.4564 12.9101C10.2819 12.6594 10.0718 12.4277 9.75155 12.4277L9.75126 12.4274ZM20.5041 21.404C20.4769 21.404 20.4502 21.404 20.4247 21.4023C20.2564 21.3951 20.0881 21.3889 19.921 21.3824C17.9139 21.3066 15.8387 21.228 13.9892 20.1145C12.9521 19.4906 11.7329 19.1783 10.26 19.1602C9.82355 19.1546 9.65496 19.0043 9.59155 18.5646C9.57703 18.4642 9.56192 18.364 9.5477 18.2636C9.40311 17.2743 9.25348 16.2514 9.29407 15.1572V15.1415L9.30978 15.1433C9.58533 15.1774 9.85437 15.2117 10.119 15.2452C10.7142 15.3211 11.2766 15.3934 11.8458 15.4526C12.6161 15.5332 13.4422 15.5821 14.2674 15.3934C14.5791 15.3226 14.9596 15.1928 15.1391 14.8144C15.3862 14.2935 15.791 13.8906 16.375 13.5821C17.1871 13.1557 17.6597 12.4843 17.8167 11.5323C17.8579 11.284 17.9116 11.0817 18.0404 10.9015C18.1921 10.6891 18.3827 10.5934 18.6227 10.6094C18.8627 10.6254 19.017 10.7753 19.0801 11.0553C19.3302 12.1617 19.1539 13.2408 18.5409 14.3543C18.4422 14.5335 18.2873 14.5617 18.1373 14.5895C18.0961 14.5972 18.0535 14.6049 18.0126 14.6159C17.9918 14.6212 17.9705 14.6263 17.9486 14.6313C17.8073 14.6642 17.6612 14.6983 17.6819 14.8713C17.6905 14.9421 17.7142 14.9916 17.7542 15.0227C17.8295 15.082 17.9545 15.0642 18.065 15.0497L18.1003 15.0449C18.2923 15.0206 18.4873 14.9943 18.676 14.9685C19.3782 14.8728 20.105 14.7744 20.8286 14.775C20.8796 14.775 20.9308 14.775 20.9818 14.775C21.2523 14.7711 21.5317 14.7673 21.7951 14.8873C22.2396 15.09 22.4431 15.3957 22.4007 15.7957C22.3501 16.2698 21.959 16.3643 21.583 16.394C21.3945 16.4055 21.2057 16.4076 21.017 16.4002C20.8627 16.3966 20.703 16.3928 20.5468 16.4002C20.4973 16.4008 20.4477 16.3975 20.3987 16.3904C20.2884 16.378 20.1744 16.3649 20.1101 16.4242C20.0698 16.4615 20.0508 16.524 20.055 16.6156C20.0576 16.6968 20.0793 16.7546 20.1204 16.7934C20.1948 16.8615 20.3222 16.855 20.4464 16.8485C20.4905 16.8461 20.5323 16.844 20.5711 16.8452C20.7833 16.852 20.9996 16.8508 21.2087 16.85C21.4179 16.8491 21.6372 16.8479 21.8511 16.8547C22.4141 16.8731 22.7104 17.0885 22.7545 17.5134C22.8156 18.1024 22.359 18.2731 21.9545 18.356C21.5219 18.4449 21.0585 18.4337 20.4958 18.3208C20.4612 18.3137 20.4241 18.3036 20.3883 18.2935C20.2831 18.2639 20.1741 18.2343 20.1012 18.2793C20.0582 18.3057 20.0301 18.356 20.0153 18.4331C20.0072 18.4623 20.0053 18.4929 20.0098 18.5229C20.0143 18.553 20.025 18.5817 20.0413 18.6073C20.1056 18.6991 20.2558 18.7223 20.3767 18.7412L20.4215 18.748C20.6316 18.7833 20.8484 18.8017 21.0579 18.8197C21.2259 18.8343 21.3993 18.8494 21.569 18.8725C21.6164 18.8787 21.6656 18.8828 21.7172 18.887C21.9916 18.9095 22.3024 18.9347 22.2736 19.3643C22.2458 19.7791 21.9616 20.0458 21.5329 20.0612C21.1077 20.0769 20.6736 20.044 20.2547 20.012L20.1335 20.0028C20.0929 19.9999 20.0496 19.9928 20.0076 19.986C19.839 19.9584 19.6798 19.9323 19.6369 20.1341C19.6215 20.2058 19.6277 20.2606 19.6553 20.3012C19.7047 20.3741 19.8191 20.3937 19.9296 20.4123C19.9667 20.4185 20.0049 20.4251 20.0396 20.4334C20.1373 20.4571 20.241 20.4731 20.3412 20.4885C20.6935 20.5427 21.0576 20.5987 21.2846 20.9922L21.2887 20.9996L21.2843 21.0067C21.0813 21.3468 20.7581 21.404 20.5041 21.404ZM9.32252 15.1741C9.284 16.2594 9.43244 17.276 9.57615 18.2594C9.59096 18.3596 9.60558 18.4599 9.62 18.5605C9.68163 18.9871 9.83718 19.1258 10.2603 19.1311C11.7385 19.1495 12.9631 19.463 14.004 20.0897C15.847 21.1993 17.9187 21.2778 19.9219 21.3537L20.4256 21.3732C20.825 21.3898 21.0881 21.271 21.2529 20.9993C21.0324 20.6233 20.6775 20.5688 20.3344 20.5157C20.2336 20.5003 20.1293 20.4843 20.0304 20.4603C19.9969 20.452 19.9607 20.4461 19.9225 20.4396C19.8061 20.42 19.6855 20.3996 19.6289 20.3163C19.5966 20.2686 19.5892 20.2067 19.6061 20.127C19.655 19.8974 19.8431 19.9282 20.0099 19.9551C20.0511 19.962 20.0941 19.9691 20.1335 19.972L20.2547 19.9812C20.673 20.0129 21.1059 20.0458 21.5287 20.0301C21.9436 20.015 22.2158 19.7581 22.2425 19.3602C22.2692 18.9623 21.9865 18.9362 21.713 18.914C21.6627 18.9098 21.6108 18.9057 21.5628 18.8988C21.3939 18.8757 21.2206 18.8609 21.0532 18.8464C20.8428 18.8286 20.6256 18.81 20.4144 18.7747L20.3699 18.7676C20.2437 18.748 20.0867 18.7237 20.0144 18.6221C19.9962 18.5931 19.9842 18.5607 19.9791 18.5268C19.974 18.493 19.9759 18.4584 19.9847 18.4254C20.0013 18.34 20.0336 18.2837 20.0837 18.2526C20.1676 18.2008 20.2825 18.2328 20.3939 18.2636C20.431 18.274 20.4656 18.2834 20.4994 18.2903C21.0582 18.4025 21.5181 18.4138 21.9465 18.3258C22.3412 18.2452 22.7838 18.0802 22.7264 17.5143C22.6837 17.0994 22.4055 16.8994 21.8508 16.8817C21.6372 16.8746 21.4197 16.8757 21.2093 16.8766C20.999 16.8775 20.7836 16.8787 20.5708 16.8722C20.5329 16.8722 20.492 16.8722 20.4484 16.8751C20.3193 16.882 20.1856 16.8891 20.1021 16.8126C20.055 16.7691 20.0304 16.7048 20.0271 16.6156C20.0239 16.5148 20.0449 16.4449 20.0917 16.4017C20.1658 16.3335 20.2864 16.3471 20.4031 16.3605C20.4508 16.3674 20.4989 16.3707 20.5471 16.3703C20.7041 16.3625 20.8644 16.3664 21.0191 16.3703C21.2067 16.3779 21.3946 16.3759 21.5821 16.3643C21.9462 16.3347 22.3252 16.2458 22.3732 15.7916C22.415 15.3999 22.2224 15.1125 21.7844 14.9128C21.5273 14.7943 21.2511 14.7993 20.9844 14.8028C20.9332 14.8028 20.8819 14.8043 20.8307 14.8043C20.108 14.8017 19.3833 14.9018 18.6819 14.9975C18.4932 15.023 18.2967 15.0497 18.1062 15.074L18.071 15.0787C17.9548 15.0941 17.8236 15.1116 17.7385 15.0458C17.692 15.0097 17.6647 14.954 17.6553 14.8748C17.631 14.6763 17.8034 14.636 17.9439 14.6034C17.9655 14.5984 17.9865 14.5937 18.007 14.588C18.049 14.5771 18.0923 14.5691 18.1341 14.5614C18.284 14.5338 18.4253 14.5077 18.5175 14.3406C19.127 13.2337 19.3024 12.1611 19.0538 11.0618C18.9945 10.7951 18.8484 10.6532 18.6227 10.6384C18.3969 10.6236 18.2114 10.7148 18.0656 10.9187C17.9403 11.0941 17.8878 11.2929 17.847 11.5374C17.6873 12.4988 17.2111 13.1765 16.391 13.6091C15.8123 13.9143 15.4132 14.3131 15.1676 14.828C14.9827 15.2177 14.5942 15.3507 14.2763 15.4227C13.4467 15.6111 12.617 15.5623 11.8452 15.482C11.2757 15.4227 10.713 15.3507 10.1175 15.2746C9.85644 15.2411 9.59274 15.2073 9.32252 15.1741Z" fill="#0037EB"/>
</svg>
